# xmcd CD database file
#
# Track frame offsets:
#	150
#	19215
#	37226
#	49855
#	64071
#	75828
#	90730
#	101932
#	117586
#	127756
#	137734
#	151785
#	166651
#	178053
#	192809
#	205851
#
# Disc length: 2920 seconds
#
# Revision: 1
# Processed by: cddbd v1.5.1PL0 Copyright (c) Steve Scherf et al.
# Submitted via: CDex 1.50
#
DISCID=d20b6610
DTITLE=Hilly Billy Ranger and his Dancing Fiddle - Dancing With The Cowboys [CD1]
DYEAR=1999
DGENRE=Country
TTITLE0=Dance The Night Away
TTITLE1=South Side Of Dixie
TTITLE2=Lovebug
TTITLE3=Rocket Ship
TTITLE4=Dizzy
TTITLE5=Young At Heart
TTITLE6=Oh Lonesome Me
TTITLE7=Don't Take Her She's All I've Got
TTITLE8=Bad Moon Rising
TTITLE9=Every Cowboys Dream
TTITLE10=Love On The Loose, Heart On The Run
TTITLE11=Country Girls
TTITLE12=9 To 5
TTITLE13=Thanks To You
TTITLE14=Twistin' The Night Away
TTITLE15=One Dance With You
EXTD=YEAR: 1999
EXTT0=
EXTT1=
EXTT2=
EXTT3=
EXTT4=
EXTT5=
EXTT6=
EXTT7=
EXTT8=
EXTT9=
EXTT10=
EXTT11=
EXTT12=
EXTT13=
EXTT14=
EXTT15=
PLAYORDER=
